<?xml version="1.0" standalone="no"?>
<!DOCTYPE svg PUBLIC "-//W3C//DTD SVG 20010904//EN"
 "http://www.w3.org/TR/2001/REC-SVG-20010904/DTD/svg10.dtd">
<svg version="1.0" xmlns="http://www.w3.org/2000/svg"
 width="500.000000pt" height="454.000000pt" viewBox="0 0 500.000000 454.000000"
 preserveAspectRatio="xMidYMid meet">

<g transform="translate(0.000000,454.000000) scale(0.100000,-0.100000)"
fill="#1F2046" stroke="none">
<path d="M4415 4531 c-105 -28 -192 -90 -250 -180 -72 -111 -135 -248 -915
-1973 -410 -907 -747 -1648 -750 -1648 -3 0 -338 748 -744 1663 -406 914 -766
1712 -799 1772 -149 273 -244 354 -428 363 -251 12 -401 -56 -476 -215 -56
-120 -53 -24 -51 -2171 l3 -1979 30 -48 c102 -163 385 -146 461 27 18 41 19
115 24 1922 l5 1878 809 -1783 c444 -981 824 -1812 843 -1847 42 -77 115 -151
179 -182 142 -67 341 -16 430 110 17 25 300 637 628 1360 329 723 704 1550
834 1837 l237 521 5 -1891 5 -1892 23 -48 c60 -121 233 -163 364 -90 58 33 93
75 108 134 7 25 9 704 8 2016 l-3 1978 -24 68 c-46 129 -143 234 -258 277 -63
23 -241 36 -298 21z"/>
</g>
</svg>
